Coordinates
version=1
nRows=17
nColumns=40
inDegrees=yes

Units are S.I. units (second, meters, Newtons, ...)
Angles are in degrees.

endheader
time	pelvis_tilt	pelvis_list	pelvis_rotation	pelvis_tx	pelvis_ty	pelvis_tz	hip_flexion_r	hip_adduction_r	hip_rotation_r	knee_angle_r	knee_angle_r_beta	ankle_angle_r	subtalar_angle_r	mtp_angle_r	hip_flexion_l	hip_adduction_l	hip_rotation_l	knee_angle_l	knee_angle_l_beta	ankle_angle_l	subtalar_angle_l	mtp_angle_l	lumbar_extension	lumbar_bending	lumbar_rotation	arm_flex_r	arm_add_r	arm_rot_r	elbow_flex_r	pro_sup_r	wrist_flex_r	wrist_dev_r	arm_flex_l	arm_add_l	arm_rot_l	elbow_flex_l	pro_sup_l	wrist_flex_l	wrist_dev_l
     56.04314286	     -2.33120790	     -4.62377968	      7.19745980	      1.05740373	      0.93038448	      0.53600342	      8.17257930	      3.41425262	    -14.42863824	     16.73839820	     16.73839820	     12.53166706	     -5.39099734	     -4.66573925	     34.31296847	    -10.89501160	      1.31795602	     44.92469365	     44.92469365	      7.95696743	    -18.43212214	     13.08082830	     -9.94139374	      4.64483633	      1.57847370	     24.52582893	    -17.43875667	     -2.37634626	     84.25616425	     44.65282750	      0.00000000	      0.00000000	     -2.44157479	     -8.26160819	     -6.06693196	     25.41750915	     46.42457396	      0.00000000	      0.00000000
     56.05628571	     -2.54118434	     -4.62457114	      7.61072448	      1.05528679	      0.93021078	      0.53571733	      7.95413089	      3.42119400	    -14.84205853	     16.34367256	     16.34367256	     12.59884222	     -5.19544798	     -4.70827616	     34.31225409	    -10.32999450	      1.44669276	     41.18080873	     41.18080873	      8.18471148	    -17.86290683	     13.02170140	     -9.88812586	      4.65725673	      1.59984228	     26.09823070	    -17.36081208	     -2.67545885	     85.94422375	     44.62060505	      0.00000000	      0.00000000	     -3.09544433	     -8.11835263	     -5.99598545	     25.28061873	     46.39504263	      0.00000000	      0.00000000
     56.06942857	     -2.69751216	     -4.68803250	      8.00064702	      1.05337197	      0.92996925	      0.53522650	      7.65213703	      3.44440679	    -15.50972146	     15.92578574	     15.92578574	     12.65293120	     -4.53168541	     -5.01474977	     34.08909226	     -9.85582828	      1.63548048	     37.34410707	     37.34410707	      7.46483068	    -17.23383020	     10.41557068	     -9.96195508	      4.80740269	      2.06463033	     26.91567886	    -17.56141878	     -3.52534956	     89.10629089	     44.59991032	      0.00000000	      0.00000000	     -3.72590117	     -8.00542044	     -5.54901005	     25.90281666	     46.27004682	      0.00000000	      0.00000000
     56.08257143	     -2.86096169	     -4.70751631	      8.30601042	      1.05145430	      0.92972247	      0.53473088	      7.39690544	      3.47056046	    -15.83087716	     15.57601385	     15.57601385	     12.74213034	     -4.35222462	     -5.05628225	     33.92838978	     -9.37505656	      1.87376945	     33.97061374	     33.97061374	      7.72788188	    -15.99309247	     10.52764011	     -9.94162467	      4.86246778	      2.14532120	     28.44885609	    -17.43396208	     -3.71168165	     90.26808870	     44.58238036	      0.00000000	      0.00000000	     -4.28119734	     -7.87842992	     -5.46143191	     25.74173534	     46.24121251	      0.00000000	      0.00000000
     56.09571429	     -3.01222187	     -4.78022983	      8.58014133	      1.04969671	      0.92938225	      0.53416490	      7.10862793	      3.54033866	    -16.22288790	     15.20068287	     15.20068287	     12.84406596	     -3.97731521	     -5.14559149	     33.79549698	     -9.00618089	      2.16725052	     30.99703241	     30.99703241	      7.92826763	    -14.51620858	     10.50891090	     -9.93195239	      4.97023703	      2.25916915	     29.87134321	    -17.29807813	     -3.87683245	     91.50133237	     44.56217657	      0.00000000	      0.00000000	     -4.82783945	     -7.72483803	     -5.39973101	     25.73911938	     46.21590856	      0.00000000	      0.00000000
     56.10885714	     -3.24786963	     -4.96004553	      8.82438690	      1.04793543	      0.92878511	      0.53357072	      7.00484240	      3.70701935	    -16.52967683	     14.96649946	     14.96649946	     12.95986481	     -3.78671474	     -5.22547115	     33.88168201	     -8.76441557	      2.55550373	     28.55950336	     28.55950336	      8.01698282	    -13.09552331	     10.64242110	     -9.76617490	      5.18061246	      2.52601765	     31.23782574	    -17.36925338	     -4.06344982	     92.30242533	     44.55194989	      0.00000000	      0.00000000	     -5.22609720	     -7.51437620	     -5.36844500	     25.73924077	     46.20080876	      0.00000000	      0.00000000
     56.12200000	     -3.23287193	     -4.96474835	      8.97983964	      1.04669687	      0.92867661	      0.53292635	      6.42845577	      3.74263626	    -16.91864895	     14.47187368	     14.47187368	     13.10938863	     -3.12066792	     -5.34265619	     33.54034356	     -8.54193007	      2.59091083	     26.41996355	     26.41996355	      8.12227656	    -11.45777764	     10.51802260	     -9.90275712	      5.20163159	      2.60629001	     32.41415671	    -17.01218920	     -4.14229434	     93.51372406	     44.52963283	      0.00000000	      0.00000000	     -5.79049280	     -7.43307172	     -5.33691001	     25.90974901	     46.17924963	      0.00000000	      0.00000000
     56.13514286	     -3.29825133	     -5.11993865	      9.12704010	      1.04552316	      0.92825291	      0.53221852	      5.99065935	      3.90728543	    -17.39222887	     14.04504441	     14.04504441	     13.27344647	     -2.34968331	     -5.51491906	     33.46801248	     -8.49314742	      2.64849212	     24.92791687	     24.92791687	      8.00405112	    -10.06793032	     10.12377110	     -9.90280747	      5.37960786	      2.79472230	     33.51140850	    -16.83727981	     -4.27520206	     94.46738418	     44.52556580	      0.00000000	      0.00000000	     -6.34558371	     -7.30338425	     -5.26789921	     26.41348982	     46.14666699	      0.00000000	      0.00000000
     56.14828571	     -3.48407394	     -5.28621460	      9.19014570	      1.04442370	      0.92753854	      0.53147634	      5.84328815	      4.06327810	    -17.48361812	     13.92045975	     13.92045975	     13.47004631	     -2.25300921	     -5.59364774	     33.55804183	     -8.42431548	      2.86966599	     23.94932110	     23.94932110	      7.88977563	     -9.39413963	     10.22134542	     -9.65562654	      5.53329637	      3.17698275	     34.47192627	    -16.86901320	     -4.37493951	     94.80170402	     44.52435173	      0.00000000	      0.00000000	     -6.60440213	     -7.17521371	     -5.24845163	     26.41344489	     46.13752495	      0.00000000	      0.00000000
     56.16142857	     -3.54990331	     -5.35653728	      9.20132295	      1.04363404	      0.92715619	      0.53069916	      5.43112764	      4.16215614	    -17.56883705	     13.60932779	     13.60932779	     13.64133144	     -1.93283798	     -5.64542492	     33.35351342	     -8.39585653	      2.73314325	     23.14581803	     23.14581803	      7.57714102	     -8.72839617	     10.27432498	     -9.59652123	      5.55678652	      3.40010330	     35.37250292	    -16.70348952	     -4.42870114	     95.21146771	     44.52033103	      0.00000000	      0.00000000	     -6.84707684	     -7.04985175	     -5.20973245	     26.47860452	     46.12452280	      0.00000000	      0.00000000
     56.17457143	     -3.59802656	     -5.44252929	      9.24432326	      1.04319380	      0.92648031	      0.52979781	      5.12259692	      4.24985829	    -17.59248258	     13.57878391	     13.57878391	     13.92054493	     -1.93172547	     -5.73136734	     33.31579013	     -8.36146541	      2.75103044	     23.10097393	     23.10097393	      7.32386870	     -8.58143115	     10.34730724	     -9.37924599	      5.49102049	      3.61285793	     35.57913105	    -16.63069782	     -4.41271845	     95.28758851	     44.51859474	      0.00000000	      0.00000000	     -6.97828861	     -7.02155851	     -5.20921913	     26.45810956	     46.12180574	      0.00000000	      0.00000000
     56.18771429	     -3.45165163	     -5.55406268	      9.14207506	      1.04321041	      0.92628458	      0.52884503	      4.14281209	      4.43083686	    -18.13667309	     12.72640030	     12.72640030	     14.14752190	     -0.31270703	     -5.83147497	     32.54604406	     -8.58638350	      2.16421186	     22.45138997	     22.45138997	      6.01975573	     -8.09862378	      7.63693120	     -9.52547535	      5.66851945	      3.39592471	     36.86386509	    -15.82817404	     -4.24647495	     95.24980738	     44.57062745	      0.00000000	      0.00000000	     -8.05675633	     -7.07188079	     -4.73318785	     28.04784760	     46.00013385	      0.00000000	      0.00000000
     56.20085714	     -3.42261620	     -5.66260833	      9.01705749	      1.04328938	      0.92570148	      0.52787166	      3.61075880	      4.58547115	    -18.02485279	     12.47722169	     12.47722169	     14.39732572	     -0.11799074	     -5.85788523	     32.13805117	     -8.71664626	      1.94653137	     22.58857212	     22.58857212	      5.58664748	     -8.21191906	      7.58937581	     -9.45337628	      5.68016569	      3.68392817	     37.26858374	    -15.69481422	     -4.22441521	     95.30186283	     44.57559776	      0.00000000	      0.00000000	     -8.18307174	     -7.00358902	     -4.65867676	     28.05706638	     45.98498125	      0.00000000	      0.00000000
     56.21400000	     -3.51425059	     -5.75927223	      8.96654152	      1.04353692	      0.92482841	      0.52656445	      3.28682052	      4.65517374	    -17.96882324	     12.42944921	     12.42944921	     14.73418448	     -0.08541678	     -5.95731301	     31.76370455	     -8.77348925	      1.72601325	     22.75574472	     22.75574472	      5.24592427	     -8.28295736	      7.67262525	     -9.11806882	      5.74325547	      3.80648349	     37.33353053	    -15.63425135	     -4.20839454	     95.31068485	     44.57587009	      0.00000000	      0.00000000	     -8.26046802	     -7.01189601	     -4.65471956	     28.05211293	     45.98282178	      0.00000000	      0.00000000
     56.22714286	     -3.55046764	     -5.84379141	      8.79826916	      1.04403878	      0.92398788	      0.52530588	      2.86711277	      4.72517151	    -17.79801418	     12.33695300	     12.33695300	     15.08241798	      0.06271634	     -6.05426170	     31.25900044	     -8.88942202	      1.45394800	     23.01457125	     23.01457125	      4.94217170	     -8.44749624	      7.69588042	     -8.86666593	      5.75629953	      3.98692532	     37.33965963	    -15.51719722	     -4.17301482	     95.25707444	     44.57752253	      0.00000000	      0.00000000	     -8.34353899	     -7.01192751	     -4.64639750	     28.06267910	     45.97966920	      0.00000000	      0.00000000
     56.24028571	     -3.24993751	     -5.92237369	      8.64458828	      1.04504706	      0.92367340	      0.52387643	      1.77036936	      4.90102297	    -17.76611893	     11.69664184	     11.69664184	     15.24581531	      0.75164265	     -5.88611684	     30.31909276	     -9.05470072	      1.22249055	     23.27264606	     23.27264606	      4.61292770	     -8.64476640	      6.91983635	     -8.94328366	      5.73424963	      4.17735575	     37.35651113	    -15.37161107	     -4.26306361	     94.53584420	     44.61223632	      0.00000000	      0.00000000	     -8.39481308	     -7.05871437	     -4.55385681	     28.36648351	     45.96074209	      0.00000000	      0.00000000
     56.25342857	     -3.20237689	     -5.97135580	      8.51929453	      1.04588910	      0.92288005	      0.52223990	      1.24942352	      4.88995879	    -17.77506547	     11.68255730	     11.68255730	     15.79374726	      1.22934578	     -5.40348007	     29.52859455	     -9.09470532	      1.07047548	     23.20583217	     23.20583217	      3.43762488	     -9.13494002	      4.17190260	     -8.71514543	      5.67451722	      3.86916170	     37.49503177	    -14.75947665	     -4.20822506	     93.10636304	     44.69301384	      0.00000000	      0.00000000	     -8.86216232	     -7.18894504	     -4.17593996	     29.11908485	     45.88403655	      0.00000000	      0.00000000
